HIERARCHY
ROOT Hips
{
  OFFSET -33.9132 29.2015 117.021
  CHANNELS 6 Xposition Yposition Zposition Zrotation Xrotation Yrotation
  JOINT LeftUpLeg
  {
    OFFSET 8.64259 1.95398 -2.38835
    CHANNELS 3 Zrotation Xrotation Yrotation
    JOINT LeftLeg
    {
      OFFSET 43.7702 0 0
      CHANNELS 3 Zrotation Xrotation Yrotation
      JOINT LeftFoot
      {
        OFFSET 40.6238 0 0
        CHANNELS 3 Zrotation Xrotation Yrotation
        JOINT LeftToeBase
        {
          OFFSET 12.7242 0 0
          CHANNELS 3 Zrotation Xrotation Yrotation
          End Site
          {
            OFFSET 0 0 0
          }
        }
      }
    }
  }
  JOINT RightUpLeg
  {
    OFFSET -8.2249 1.95398 -2.59336
    CHANNELS 3 Zrotation Xrotation Yrotation
    JOINT RightLeg
    {
      OFFSET 43.5653 0 0
      CHANNELS 3 Zrotation Xrotation Yrotation
      JOINT RightFoot
      {
        OFFSET 40.6238 0 0
        CHANNELS 3 Zrotation Xrotation Yrotation
        JOINT RightToeBase
        {
          OFFSET 12.7242 0 0
          CHANNELS 3 Zrotation Xrotation Yrotation
          End Site
          {
            OFFSET 0 0 0
          }
        }
      }
    }
  }
  JOINT Spine
  {
    OFFSET 0.165834 0.87714 6.61349
    CHANNELS 3 Zrotation Xrotation Yrotation
    JOINT Spine1
    {
      OFFSET 7.38963 1.71661e-005 0
      CHANNELS 3 Zrotation Xrotation Yrotation
      JOINT Spine2
      {
        OFFSET 11.9445 1.14441e-005 0
        CHANNELS 3 Zrotation Xrotation Yrotation
        JOINT Spine3
        {
          OFFSET 14.7254 4.19617e-005 0
          CHANNELS 3 Zrotation Xrotation Yrotation
          JOINT Spine4
          {
            OFFSET 10.9679 0 0
            CHANNELS 3 Zrotation Xrotation Yrotation
            JOINT RightShoulder
            {
              OFFSET 2.46616 -1.6653 3.69651
              CHANNELS 3 Zrotation Xrotation Yrotation
              JOINT RightArm
              {
                OFFSET 13.0012 0 0
                CHANNELS 3 Zrotation Xrotation Yrotation
                JOINT RightForeArm
                {
                  OFFSET 28.7848 1.62311e-005 0
                  CHANNELS 3 Zrotation Xrotation Yrotation
                  JOINT RightHand
                  {
                    OFFSET 26.5688 1.62095e-005 0
                    CHANNELS 3 Zrotation Xrotation Yrotation
                    End Site
                    {
                      OFFSET 0 0 0
                    }
                  }
                }
              }
            }
            JOINT LeftShoulder
            {
              OFFSET 2.38034 -1.29275 -3.7523
              CHANNELS 3 Zrotation Xrotation Yrotation
              JOINT LeftArm
              {
                OFFSET 16.3182 6.07031e-005 0
                CHANNELS 3 Zrotation Xrotation Yrotation
                JOINT LeftForeArm
                {
                  OFFSET 27.0901 0 0
                  CHANNELS 3 Zrotation Xrotation Yrotation
                  JOINT LeftHand
                  {
                    OFFSET 24.5451 1.51738e-005 0
                    CHANNELS 3 Zrotation Xrotation Yrotation
                    End Site
                    {
                      OFFSET 0 0 0
                    }
                  }
                }
              }
            }
            JOINT Neck
            {
              OFFSET 5.0226 -0.0266342 0
              CHANNELS 3 Zrotation Xrotation Yrotation
              JOINT Head
              {
                OFFSET 6.69364 2.86102e-005 0
                CHANNELS 3 Zrotation Xrotation Yrotation
                End Site
                {
                  OFFSET 0 0 0
                }
              }
            }
          }
        }
      }
    }
  }
}
MOTION
Frames:	6
Frame Time:	0.0416667
-206.53 99.7828 -186.631 -101.554 42.7382 -82.5416 -173.061 1.49856 92.6035 -17.0831 7.06446 -0.0698314 64.7903 3.71127 0.149725 25.6543 -2.25044 1.7827 171.932 0.202859 89.8543 -20.2418 -1.14171 1.93745 68.8456 -5.78872 -1.75734 18.2932 2.33452 7.29546 0.257175 8.20583 -89.9977 10.4624 0.513392 -0.0408669 -1.2084 0.511083 -0.0634285 -23.7444 0.50193 0.115326 -3.73171 0.501932 0.11532 91.6112 -26.8998 -104.646 51.4304 4.05906 -5.39559 -5.18955 -40.3534 -5.38625 -18.2046 2.63152 -22.1531 -90.5658 -52.5871 78.4483 -16.8629 -7.19822 -8.5585 -11.6622 37.9275 -0.0527934 8.49443 -1.46572 -20.516 6.75648 -1.02178 -1.43079 -0.396629 -0.754754 -1.75015 
-206.589 99.7515 -186.512 -100.808 42.7207 -82.5191 -172.752 2.57404 93.1767 -17.8095 7.63242 -0.288626 64.6303 3.64524 0.762674 26.277 -1.43083 0.63559 172.395 0.489291 90.4243 -19.8647 -0.71909 1.95239 68.6259 -5.62041 -1.87903 18.1883 2.37451 7.3002 0.224596 8.15023 -90.0212 10.5736 0.437602 -0.0815281 -1.09723 0.433615 -0.100715 -23.633 0.441876 0.0537608 -3.62033 0.441886 0.0537636 91.3682 -27.1652 -105.054 51.1527 4.26665 -5.13383 -5.24781 -41.2361 -5.41955 -17.396 2.65717 -23.1484 -90.4717 -51.9991 78.4596 -16.7287 -6.60014 -8.74678 -11.8259 37.1945 -0.0570603 8.84595 -1.56651 -20.7057 6.7366 -0.944899 -1.83755 -0.373552 -0.590036 -1.2835 
-206.814 99.8021 -186.355 -100.942 43.1656 -82.6443 -172.872 2.13672 92.7241 -17.4177 6.84003 -0.321874 64.9273 3.76965 0.222618 25.3555 -2.33557 1.65261 172.232 0.682372 90.0177 -20.0808 -1.21634 1.7875 68.6138 -5.58663 -1.73997 18.256 2.33201 7.3442 0.236757 8.18762 -89.9917 10.4988 0.475407 -0.0258187 -1.1721 0.473837 -0.0467285 -23.7079 0.461177 0.118257 -3.69528 0.461202 0.118255 91.3724 -27.3204 -104.987 50.9065 4.3808 -5.10963 -5.2261 -40.9108 -5.40706 -17.4405 2.55801 -22.4453 -90.3268 -51.604 78.5874 -16.7785 -7.21179 -9.2293 -11.5112 38.0345 -0.080183 9.23483 -1.72939 -21.5167 7.11598 -0.772951 -1.65764 -0.609254 -0.450897 -1.39529 
-206.952 99.7839 -186.029 -100.664 43.7483 -82.6923 -172.908 2.56432 92.5757 -17.5928 6.6104 -0.423987 64.7359 3.63878 0.88125 24.7005 -2.28373 0.871094 172.307 1.30117 89.9695 -20.4118 -1.82379 1.68792 68.3817 -5.60128 -1.93481 18.3206 2.24067 7.53218 0.235662 8.1848 -90.0203 10.5045 0.460119 -0.0813345 -1.16635 0.456099 -0.101516 -23.7022 0.463278 0.0607096 -3.68952 0.463286 0.0607114 91.7671 -28.0884 -103.901 50.277 4.52646 -5.50465 -5.30595 -42.0945 -5.45291 -17.8394 2.55089 -22.0032 -90.4463 -51.9971 78.4959 -16.2119 -7.45977 -9.42546 -11.321 39.3659 -0.0534096 8.77212 -1.62742 -21.5177 7.17853 -0.469819 -0.956228 -0.667426 -0.304959 -2.04739 
-206.519 99.5202 -185.359 -100.427 44.7969 -82.8854 -172.832 4.45621 92.4254 -19.8331 6.29746 -0.80947 65.0074 3.29173 1.18625 23.3775 -3.02179 1.06864 171.98 4.17214 89.8402 -23.9288 -3.35616 1.79554 68.1241 -5.96997 -2.4897 18.138 2.36571 7.38325 0.322858 8.22599 -90.0783 10.4224 0.607323 -0.209166 -1.24839 0.597528 -0.235693 -23.7847 0.642114 -0.0169592 -3.77202 0.642104 -0.0169603 92.3872 -26.8681 -103.035 50.6282 4.33671 -5.61217 -5.34597 -42.6759 -5.47735 -18.112 2.56431 -21.8187 -90.6341 -52.2335 78.2731 -16.4239 -7.39164 -9.32612 -11.5305 37.6778 0.0678344 10.4476 -1.99716 -21.6767 8.22796 -0.355598 0.0234962 -1.12858 -0.388769 -2.56167 
-205.136 98.8683 -183.992 -99.075 45.5419 -84.8936 -173.324 8.07016 91.2373 -22.6265 5.47155 -1.23051 65.0986 3.07104 1.40349 22.4544 -3.23783 0.602986 171.209 10.973 88.7141 -31.5161 -6.30965 1.9105 67.6478 -5.70239 -2.81824 18.0244 2.45946 7.24578 0.38921 8.37236 -89.9839 10.1294 0.783018 -0.0338648 -1.54127 0.780772 -0.068292 -24.0782 0.757011 0.203045 -4.06559 0.75699 0.203043 92.1719 -26.6628 -103.553 49.5586 4.52285 -6.49834 -5.32259 -42.3406 -5.46337 -17.7848 2.76063 -23.4092 -90.3509 -51.6454 78.5609 -16.2539 -6.51378 -7.49922 -10.8292 33.0564 -1.41124 11.9612 -2.71579 -24.2164 11.091 0.0392263 1.24247 -1.12561 -0.289344 -2.45004 
